PathFileType	4	(X/Y/Z)	./resultDataOpenSim/trcMotMarkerGrf/sub06/qtm-01-04.trc
DataRate	CameraRate	NumFrames	NumMarkers	Units	OrigDataRate	OrigDataStartFrame	OrigNumFrames
250.000000	250.000000	9	24	m	250.000000	65	515
Frame#	Time	L.Toe.Tip			R.Toe.Tip			L.Ankle.Lat			R.Ankle.Lat			L.Ankle.Med			R.Ankle.Med			L.Heel			R.Heel			L.Knee.Lat			R.Knee.Lat			L.Knee.Med			R.Knee.Med			L.Thigh.Upper			R.Thigh.Upper			L.ASIS			R.ASIS			V.Sacral			L.Acromium			R.Acromium			C7			L.Elbow			R.Elbow			L.Wrist.Lat			R.Wrist.Lat
		X1	Y1	Z1	X2	Y2	Z2	X3	Y3	Z3	X4	Y4	Z4	X5	Y5	Z5	X6	Y6	Z6	X7	Y7	Z7	X8	Y8	Z8	X9	Y9	Z9	X10	Y10	Z10	X11	Y11	Z11	X12	Y12	Z12	X13	Y13	Z13	X14	Y14	Z14	X15	Y15	Z15	X16	Y16	Z16	X17	Y17	Z17	X18	Y18	Z18	X19	Y19	Z19	X20	Y20	Z20	X21	Y21	Z21	X22	Y22	Z22	X23	Y23	Z23	X24	Y24	Z24

65	0.256	-1.2817762	0.075080847	-0.07148577	-0.82197622	0.035427674	0.096239124	-1.2932544	0.20595733	-0.097007395	-0.95646023	0.06117308	0.12505108	-1.2737738	0.21013524	-0.01623089	-0.94210686	0.08153692	0.037727419	-1.3438569	0.25695645	-0.045388464	-1.0136279	0.039348291	0.06465815	-0.96951586	0.40009046	-0.12323825	-0.8968428	0.44486496	0.15502254	-0.96589374	0.38547904	-0.0011994019	-0.93587095	0.43548065	0.032482392	-1.0339791	0.78924508	-0.11843097	-1.0044637	0.80430456	0.22276283	-0.95513778	0.84261341	-0.083251611	-0.92140468	0.85778495	0.16080819	-1.1234229	0.92323342	0.068840601	-0.99523899	1.335239	-0.12712549	-0.99361449	1.3103618	0.23571712	-1.0697338	1.3644173	0.05540668	-1.0406803	1.0180983	-0.19033916	-1.0890557	1.0061138	0.27781595	-0.87260138	0.83631703	-0.19050792	-0.97066699	0.79765503	0.31732939
66	0.26	-1.2660321	0.074496346	-0.071731145	-0.82204858	0.035446249	0.096276877	-1.2801652	0.20503482	-0.096707494	-0.95658732	0.061173907	0.12513383	-1.2603044	0.20935458	-0.016089454	-0.94216877	0.081708465	0.037881974	-1.3314184	0.25491527	-0.045066742	-1.0136739	0.039433355	0.0647244	-0.95856105	0.40253739	-0.12322005	-0.8955291	0.44483294	0.15556083	-0.9539677	0.38786744	-0.0011125239	-0.93450378	0.43563149	0.032720943	-1.0279641	0.79109057	-0.11802481	-0.99945499	0.80521394	0.22339887	-0.94950627	0.84430416	-0.082903323	-0.91576252	0.85908312	0.16176193	-1.117006	0.92450979	0.069452211	-0.99032467	1.3366746	-0.12692747	-0.98780094	1.3121454	0.23581488	-1.0642733	1.3658511	0.055688415	-1.0365159	1.0197405	-0.18982706	-1.0820065	1.0074145	0.27924787	-0.8694677	0.8370765	-0.19066437	-0.96108644	0.80024597	0.31746511
67	0.264	-1.2500151	0.073772505	-0.072048801	-0.82212102	0.035464035	0.096309519	-1.2669577	0.20392709	-0.096425419	-0.9566973	0.061177341	0.12522082	-1.2467908	0.20839079	-0.015957691	-0.94220312	0.081878932	0.038023368	-1.3188748	0.25256564	-0.044681451	-1.0137358	0.039507523	0.064799367	-0.94766649	0.40503777	-0.12316667	-0.89437027	0.44477604	0.156002	-0.94222452	0.39028894	-0.0010315965	-0.93333502	0.43573131	0.032920538	-1.0218928	0.79291666	-0.11773523	-0.99408207	0.80612206	0.22416805	-0.9438572	0.84598514	-0.082514227	-0.91011154	0.86038624	0.1627102	-1.1109941	0.92565996	0.069820283	-0.98539732	1.338095	-0.12672916	-0.98196671	1.31391	0.23589721	-1.0588206	1.3672629	0.055975258	-1.0323959	1.0213813	-0.18935938	-1.0750022	1.0087239	0.28071696	-0.8663412	0.83785014	-0.19083791	-0.95154713	0.80285774	0.31756833
68	0.268	-1.2336725	0.072937873	-0.072511205	-0.8221936	0.035481812	0.096339173	-1.2535798	0.20264165	-0.096181	-0.95686708	0.061143968	0.12529184	-1.2332087	0.20723755	-0.015822391	-0.94223196	0.082045286	0.038158194	-1.3063553	0.24997605	-0.044097137	-1.0138161	0.039557481	0.064885299	-0.93683878	0.407573	-0.12308162	-0.89339033	0.44469244	0.15633454	-0.93069837	0.39275091	-0.00096328442	-0.93206956	0.43582016	0.033136136	-1.0157281	0.79469124	-0.11770036	-0.98870471	0.80699017	0.22492219	-0.93822005	0.8476574	-0.082072925	-0.90490837	0.86163535	0.163571	-1.1055168	0.92669717	0.069882868	-0.98045814	1.339497	-0.12653005	-0.97608612	1.3156584	0.23597006	-1.0533799	1.3686479	0.056265166	-1.0282918	1.0230134	-0.18890323	-1.0681366	1.0100496	0.28209751	-0.86321884	0.83863382	-0.19103343	-0.94205172	0.80550346	0.31764211
69	0.272	-1.2170369	0.072014851	-0.073078204	-0.82226523	0.035499132	0.09636688	-1.2400187	0.20117414	-0.095973897	-0.9572217	0.061007573	0.12531372	-1.2195685	0.2058845	-0.015659753	-0.94228069	0.082206386	0.038299462	-1.2938639	0.24718412	-0.043431655	-1.0139096	0.039582223	0.064981626	-0.92610476	0.41012892	-0.12296601	-0.89245768	0.44460402	0.15663598	-0.91943426	0.39525416	-0.00091721987	-0.93061017	0.43591905	0.033402723	-1.0094604	0.79640742	-0.11795382	-0.98373243	0.80779594	0.22549528	-0.93260018	0.84931918	-0.081572959	-0.90042282	0.86280209	0.16428843	-1.100437	0.92769326	0.069763695	-0.97551049	1.3408728	-0.1263308	-0.97011526	1.3173959	0.23603396	-1.0479527	1.3699998	0.056555605	-1.024172	1.024625	-0.18841487	-1.0614064	1.0113788	0.28334642	-0.86010161	0.83942295	-0.19125064	-0.93255799	0.80821403	0.31769805
70	0.276	-1.2001534	0.071025503	-0.073692225	-0.82233448	0.035514714	0.096393602	-1.2263029	0.19951961	-0.095790723	-0.95780689	0.060743782	0.12527764	-1.2057758	0.20434846	-0.015484702	-0.9423654	0.082361419	0.038456716	-1.2813174	0.24415779	-0.042847354	-1.0140058	0.039600452	0.065082084	-0.91547081	0.41269885	-0.12282034	-0.89140011	0.44453997	0.15699825	-0.90843205	0.39780411	-0.00088043987	-0.9292099	0.43599405	0.033701161	-1.0031351	0.79808487	-0.11830751	-0.97931934	0.80853646	0.22579562	-0.92696323	0.85097087	-0.081042277	-0.89634394	0.86392868	0.16490305	-1.0954938	0.92872348	0.069646357	-0.97055418	1.3422133	-0.12613088	-0.96403949	1.3191239	0.23609181	-1.0425368	1.3713117	0.05684501	-1.0200283	1.0262102	-0.18788106	-1.0547322	1.0126961	0.28450911	-0.8569945	0.84021026	-0.1914787	-0.92305039	0.81098966	0.31774183
71	0.28	-1.1830425	0.069992959	-0.074331405	-0.82239904	0.035528489	0.096421343	-1.21247	0.19768034	-0.095620405	-0.9584554	0.060442747	0.12523224	-1.191553	0.20267657	-0.015364482	-0.94247889	0.082510397	0.038629079	-1.2686533	0.24083782	-0.042342608	-1.0141023	0.039630973	0.065191789	-0.90489834	0.41527197	-0.12264155	-0.89017244	0.44450499	0.15743554	-0.89758998	0.40042802	-0.00080548933	-0.9281761	0.43599858	0.03399659	-0.9968143	0.79974887	-0.11851161	-0.97516983	0.80922919	0.22586402	-0.9212504	0.85262074	-0.080518553	-0.8920921	0.86508277	0.16550816	-1.0904715	0.92980412	0.069647615	-0.96558708	1.343512	-0.12592838	-0.95792081	1.3208272	0.23614798	-1.0371288	1.3725799	0.057133504	-1.0158958	1.027771	-0.18734893	-1.0480482	1.0139929	0.28564012	-0.85389794	0.8409871	-0.19170345	-0.91356434	0.81378587	0.31776405
72	0.284	-1.1656939	0.068941005	-0.07500325	-0.82245633	0.035542256	0.096452942	-1.1985437	0.19566273	-0.095455215	-0.95892	0.060239143	0.1252445	-1.1767668	0.20091503	-0.015347498	-0.94258765	0.082657415	0.038806179	-1.2558448	0.23721506	-0.041892698	-1.0142151	0.039670598	0.065348885	-0.89435375	0.4178347	-0.12242024	-0.88886036	0.44447705	0.15790138	-0.88680403	0.40314888	-0.00064989923	-0.92743243	0.43596138	0.034305802	-0.99050909	0.80140936	-0.11851248	-0.97081641	0.8099008	0.22584369	-0.91539102	0.85428433	-0.079991346	-0.88742534	0.8662845	0.16615065	-1.0853037	0.93090473	0.06976972	-0.9606092	1.344768	-0.12572187	-0.95185136	1.3224782	0.23620162	-1.0317283	1.3738017	0.057421421	-1.0118207	1.0293079	-0.18688709	-1.0413296	1.0152624	0.28676629	-0.8508027	0.84174853	-0.19192131	-0.90411493	0.81656412	0.31775623
73	0.288	-1.1480971	0.067884909	-0.075718078	-0.82250625	0.035557328	0.096489643	-1.1845208	0.1934755	-0.095290048	-0.95910549	0.0601877	0.1253381	-1.1617893	0.19908268	-0.015389499	-0.94265683	0.082813719	0.038976664	-1.2428719	0.2333492	-0.04160874	-1.0143646	0.039708369	0.065598724	-0.88384819	0.4203834	-0.12214129	-0.88758932	0.44443112	0.15835158	-0.87609345	0.40595406	-0.00041257701	-0.92660304	0.4359606	0.034661296	-0.98418461	0.80306575	-0.11843299	-0.9660815	0.81056214	0.22586703	-0.90931182	0.8559777	-0.079404366	-0.88244501	0.86751091	0.16682844	-1.0799526	0.93197578	0.069929904	-0.95562309	1.3459829	-0.12551051	-0.9458686	1.3240619	0.23624876	-1.0263363	1.3749731	0.0577091	-1.0078126	1.0308129	-0.1865187	-1.034577	1.0164979	0.28789666	-0.84769297	0.84249565	-0.19213844	-0.89467605	0.81932576	0.31772454
